{"title":"Tais Toi (Ruby &amp; Quentin) 2003 DVDRip Hr.Janno (Eesti keeles","uid":8041039,"size":733613661,"categoryP":"video","categoryS":"hd___movies","magnet":"?xt=urn:btih:68ebf4efff4a042743645bb1b6626b27c74f1e7d&amp;dn=Tais+Toi+%28Ruby+%26amp%3B+Quentin%29+2003+DVDRip+Hr.Janno+%28Eesti+keeles&amp;tr=udp%3A%2F%2Ftracker.openbittorrent.com%3A80&amp;tr=udp%3A%2F%2Fopen.demonii.com%3A1337&amp;tr=udp%3A%2F%2Ftracker.coppersurfer.tk%3A6969&amp;tr=udp%3A%2F%2Fexodus.desync.com%3A6969","seeders":1,"leechers":1,"uploader":"Hr.Janno","files":-1,"time":1358630632,"description":"VÃ„GA HEA PRANTSUSE KOMÃ–Ã–DIA!!!\n\n\n\n\nToi.2005.DVDRip.Hr.Janno.avi\nFormat                                   : DivX\nFormat/Info                              : Hack of AVI\nFile size                                : 700 MiB\nDuration                                 : 1h 23mn\nOverall bit rate                         : 1 171 Kbps\n\nVideo\nID                                       : 0\nFormat                                   : MPEG-4 Visual\nFormat profile                           : Advanced Simple@L5\nFormat settings, BVOP                    : 1\nFormat settings, QPel                    : No\nFormat settings, GMC                     : No warppoints\nFormat settings, Matrix                  : Default (H.263)\nMuxing mode                              : Packed bitstream\nCodec ID                                 : DX50\nCodec ID/Hint                            : DivX 5\nDuration                                 : 1h 23mn\nBit rate                                 : 1 033 Kbps\nWidth                                    : 720 pixels\nHeight                                   : 304 pixels\nDisplay aspect ratio                     : 2.35:1\nFrame rate                               : 25.000 fps\nColor space                              : YUV\nChroma subsampling                       : 4:2:0\nBit depth                                : 8 bits\nScan type                                : Progressive\nCompression mode                         : Lossy\nBits/(Pixel*Frame)                       : 0.189\nStream size                              : 617 MiB (88%)\nTitle                                    : Video \nWriting library                          : XviD 1.2.1 (UTC 2008-12-04)\n\nAudio\nID                                       : 1\nFormat                                   : MPEG Audio\nFormat version                           : Version 1\nFormat profile                           : Layer 3\nMode                                     : Joint stereo\nMode extension                           : MS Stereo\nCodec ID                                 : 55\nCodec ID/Hint                            : MP3\nDuration                                 : 1h 23mn\nBit rate mode                            : Constant\nBit rate                                 : 128 Kbps\nChannel(s)                               : 2 channels\nSampling rate                            : 48.0 KHz\nCompression mode                         : Lossy\nStream size                              : 76.5 MiB (11%)\nAlignment                                : Split accross interleaves\nInterleave, duration                     : 40 ms (1.00 video frame)\nInterleave, preload duration             : 500 ms\nTitle                                    : Audio \nWriting library                          : LAME3.98r\nLanguage                                 : France     \nSubtitle                                 : Estonia","torrent":{"xt":"urn:btih:68ebf4efff4a042743645bb1b6626b27c74f1e7d","amp;dn":"Tais+Toi+%28Ruby+%26amp%3B+Quentin%29+2003+DVDRip+Hr.Janno+%28Eesti+keeles","amp;tr":["udp%3A%2F%2Ftracker.openbittorrent.com%3A80","udp%3A%2F%2Fopen.demonii.com%3A1337","udp%3A%2F%2Ftracker.coppersurfer.tk%3A6969","udp%3A%2F%2Fexodus.desync.com%3A6969"],"infoHash":"68ebf4efff4a042743645bb1b6626b27c74f1e7d","infoHashBuffer":{"type":"Buffer","data":[104,235,244,239,255,74,4,39,67,100,91,177,182,98,107,39,199,79,30,125]},"announce":[],"urlList":[]}}